<mxfile host="app.diagrams.net" agent="Mozilla/5.0 (Windows NT 10.0; Win64; x64) AppleWebKit/537.36 (KHTML, like Gecko) Chrome/135.0.0.0 Safari/537.36" version="26.2.10">
  <diagram name="Page-1" id="qVAa8EoUY1M3Obthr7q4">
    <mxGraphModel dx="935" dy="624" grid="1" gridSize="10" guides="1" tooltips="1" connect="1" arrows="1" fold="1" page="1" pageScale="1" pageWidth="850" pageHeight="1100" math="0" shadow="0">
      <root>
        <mxCell id="0" />
        <mxCell id="1" parent="0" />
        <mxCell id="Q-YEu0oxDrb5LOsO9U1e-56" value="" style="group" vertex="1" connectable="0" parent="1">
          <mxGeometry x="90" y="180" width="700" height="710" as="geometry" />
        </mxCell>
        <mxCell id="Q-YEu0oxDrb5LOsO9U1e-3" value="" style="group" vertex="1" connectable="0" parent="Q-YEu0oxDrb5LOsO9U1e-56">
          <mxGeometry x="270" y="80" width="130" height="130" as="geometry" />
        </mxCell>
        <mxCell id="Q-YEu0oxDrb5LOsO9U1e-4" value="&lt;span style=&quot;font-size: 14px;&quot;&gt;Check IPv4/IPv6&lt;/span&gt;" style="ellipse;whiteSpace=wrap;html=1;aspect=fixed;container=1;" vertex="1" parent="Q-YEu0oxDrb5LOsO9U1e-3">
          <mxGeometry width="130" height="130" as="geometry" />
        </mxCell>
        <mxCell id="Q-YEu0oxDrb5LOsO9U1e-5" value="" style="endArrow=none;html=1;rounded=0;exitX=0;exitY=0;exitDx=0;exitDy=0;entryX=1;entryY=0;entryDx=0;entryDy=0;" edge="1" parent="Q-YEu0oxDrb5LOsO9U1e-3" source="Q-YEu0oxDrb5LOsO9U1e-4" target="Q-YEu0oxDrb5LOsO9U1e-4">
          <mxGeometry width="50" height="50" relative="1" as="geometry">
            <mxPoint x="50" y="195" as="sourcePoint" />
            <mxPoint x="100" y="145" as="targetPoint" />
          </mxGeometry>
        </mxCell>
        <mxCell id="Q-YEu0oxDrb5LOsO9U1e-6" value="1.2.1" style="text;html=1;align=center;verticalAlign=middle;whiteSpace=wrap;rounded=0;" vertex="1" parent="Q-YEu0oxDrb5LOsO9U1e-3">
          <mxGeometry x="37.5" width="55" height="20" as="geometry" />
        </mxCell>
        <mxCell id="Q-YEu0oxDrb5LOsO9U1e-8" value="&lt;span style=&quot;font-size: 14px;&quot;&gt;Packet Captured&lt;/span&gt;" style="rounded=0;whiteSpace=wrap;html=1;" vertex="1" parent="Q-YEu0oxDrb5LOsO9U1e-56">
          <mxGeometry y="115" width="120" height="60" as="geometry" />
        </mxCell>
        <mxCell id="Q-YEu0oxDrb5LOsO9U1e-10" value="" style="group" vertex="1" connectable="0" parent="Q-YEu0oxDrb5LOsO9U1e-56">
          <mxGeometry x="270" y="250" width="130" height="130" as="geometry" />
        </mxCell>
        <mxCell id="Q-YEu0oxDrb5LOsO9U1e-11" value="&lt;span style=&quot;font-size: 14px;&quot;&gt;Detect Protocol TCP/UDP/ICMP&lt;/span&gt;" style="ellipse;whiteSpace=wrap;html=1;aspect=fixed;container=1;" vertex="1" parent="Q-YEu0oxDrb5LOsO9U1e-10">
          <mxGeometry width="130" height="130" as="geometry" />
        </mxCell>
        <mxCell id="Q-YEu0oxDrb5LOsO9U1e-12" value="" style="endArrow=none;html=1;rounded=0;exitX=0;exitY=0;exitDx=0;exitDy=0;entryX=1;entryY=0;entryDx=0;entryDy=0;" edge="1" parent="Q-YEu0oxDrb5LOsO9U1e-10" source="Q-YEu0oxDrb5LOsO9U1e-11" target="Q-YEu0oxDrb5LOsO9U1e-11">
          <mxGeometry width="50" height="50" relative="1" as="geometry">
            <mxPoint x="50" y="195" as="sourcePoint" />
            <mxPoint x="100" y="145" as="targetPoint" />
          </mxGeometry>
        </mxCell>
        <mxCell id="Q-YEu0oxDrb5LOsO9U1e-13" value="1.2.2" style="text;html=1;align=center;verticalAlign=middle;whiteSpace=wrap;rounded=0;" vertex="1" parent="Q-YEu0oxDrb5LOsO9U1e-10">
          <mxGeometry x="37.5" width="55" height="20" as="geometry" />
        </mxCell>
        <mxCell id="Q-YEu0oxDrb5LOsO9U1e-18" value="" style="group" vertex="1" connectable="0" parent="Q-YEu0oxDrb5LOsO9U1e-56">
          <mxGeometry x="270" y="420" width="130" height="130" as="geometry" />
        </mxCell>
        <mxCell id="Q-YEu0oxDrb5LOsO9U1e-19" value="&lt;span style=&quot;font-size: 14px;&quot;&gt;Extract IP, Ports, DNS, HTTP&lt;/span&gt;" style="ellipse;whiteSpace=wrap;html=1;aspect=fixed;container=1;" vertex="1" parent="Q-YEu0oxDrb5LOsO9U1e-18">
          <mxGeometry width="130" height="130" as="geometry" />
        </mxCell>
        <mxCell id="Q-YEu0oxDrb5LOsO9U1e-20" value="" style="endArrow=none;html=1;rounded=0;exitX=0;exitY=0;exitDx=0;exitDy=0;entryX=1;entryY=0;entryDx=0;entryDy=0;" edge="1" parent="Q-YEu0oxDrb5LOsO9U1e-18" source="Q-YEu0oxDrb5LOsO9U1e-19" target="Q-YEu0oxDrb5LOsO9U1e-19">
          <mxGeometry width="50" height="50" relative="1" as="geometry">
            <mxPoint x="50" y="195" as="sourcePoint" />
            <mxPoint x="100" y="145" as="targetPoint" />
          </mxGeometry>
        </mxCell>
        <mxCell id="Q-YEu0oxDrb5LOsO9U1e-21" value="1.2.3" style="text;html=1;align=center;verticalAlign=middle;whiteSpace=wrap;rounded=0;" vertex="1" parent="Q-YEu0oxDrb5LOsO9U1e-18">
          <mxGeometry x="37.5" width="55" height="20" as="geometry" />
        </mxCell>
        <mxCell id="Q-YEu0oxDrb5LOsO9U1e-22" value="" style="group" vertex="1" connectable="0" parent="Q-YEu0oxDrb5LOsO9U1e-56">
          <mxGeometry x="270" y="580" width="130" height="130" as="geometry" />
        </mxCell>
        <mxCell id="Q-YEu0oxDrb5LOsO9U1e-23" value="&lt;span style=&quot;font-size: 14px;&quot;&gt;Extract raw data from packet&lt;/span&gt;" style="ellipse;whiteSpace=wrap;html=1;aspect=fixed;container=1;" vertex="1" parent="Q-YEu0oxDrb5LOsO9U1e-22">
          <mxGeometry width="130" height="130" as="geometry" />
        </mxCell>
        <mxCell id="Q-YEu0oxDrb5LOsO9U1e-24" value="" style="endArrow=none;html=1;rounded=0;exitX=0;exitY=0;exitDx=0;exitDy=0;entryX=1;entryY=0;entryDx=0;entryDy=0;" edge="1" parent="Q-YEu0oxDrb5LOsO9U1e-22" source="Q-YEu0oxDrb5LOsO9U1e-23" target="Q-YEu0oxDrb5LOsO9U1e-23">
          <mxGeometry width="50" height="50" relative="1" as="geometry">
            <mxPoint x="50" y="195" as="sourcePoint" />
            <mxPoint x="100" y="145" as="targetPoint" />
          </mxGeometry>
        </mxCell>
        <mxCell id="Q-YEu0oxDrb5LOsO9U1e-25" value="1.2.4" style="text;html=1;align=center;verticalAlign=middle;whiteSpace=wrap;rounded=0;" vertex="1" parent="Q-YEu0oxDrb5LOsO9U1e-22">
          <mxGeometry x="37.5" width="55" height="20" as="geometry" />
        </mxCell>
        <mxCell id="Q-YEu0oxDrb5LOsO9U1e-35" value="" style="endArrow=classic;html=1;rounded=0;exitX=1;exitY=0.25;exitDx=0;exitDy=0;entryX=0.008;entryY=0.392;entryDx=0;entryDy=0;entryPerimeter=0;" edge="1" parent="Q-YEu0oxDrb5LOsO9U1e-56" source="Q-YEu0oxDrb5LOsO9U1e-8" target="Q-YEu0oxDrb5LOsO9U1e-4">
          <mxGeometry width="50" height="50" relative="1" as="geometry">
            <mxPoint x="310" y="280" as="sourcePoint" />
            <mxPoint x="360" y="230" as="targetPoint" />
          </mxGeometry>
        </mxCell>
        <mxCell id="Q-YEu0oxDrb5LOsO9U1e-38" value="" style="endArrow=classic;html=1;rounded=0;exitX=0.008;exitY=0.623;exitDx=0;exitDy=0;entryX=1;entryY=0.75;entryDx=0;entryDy=0;exitPerimeter=0;" edge="1" parent="Q-YEu0oxDrb5LOsO9U1e-56" source="Q-YEu0oxDrb5LOsO9U1e-4" target="Q-YEu0oxDrb5LOsO9U1e-8">
          <mxGeometry width="50" height="50" relative="1" as="geometry">
            <mxPoint x="410" y="140" as="sourcePoint" />
            <mxPoint x="561" y="141" as="targetPoint" />
          </mxGeometry>
        </mxCell>
        <mxCell id="Q-YEu0oxDrb5LOsO9U1e-40" value="" style="endArrow=classic;html=1;rounded=0;entryX=0.027;entryY=0.314;entryDx=0;entryDy=0;entryPerimeter=0;exitX=0.917;exitY=0.988;exitDx=0;exitDy=0;exitPerimeter=0;" edge="1" parent="Q-YEu0oxDrb5LOsO9U1e-56" source="Q-YEu0oxDrb5LOsO9U1e-8" target="Q-YEu0oxDrb5LOsO9U1e-11">
          <mxGeometry width="50" height="50" relative="1" as="geometry">
            <mxPoint x="108" y="200" as="sourcePoint" />
            <mxPoint x="130" y="170" as="targetPoint" />
            <Array as="points">
              <mxPoint x="110" y="291" />
            </Array>
          </mxGeometry>
        </mxCell>
        <mxCell id="Q-YEu0oxDrb5LOsO9U1e-42" value="" style="endArrow=classic;html=1;rounded=0;exitX=1;exitY=0.5;exitDx=0;exitDy=0;entryX=0.25;entryY=0;entryDx=0;entryDy=0;" edge="1" parent="Q-YEu0oxDrb5LOsO9U1e-56" source="Q-YEu0oxDrb5LOsO9U1e-11" target="Q-YEu0oxDrb5LOsO9U1e-55">
          <mxGeometry width="50" height="50" relative="1" as="geometry">
            <mxPoint x="281" y="171" as="sourcePoint" />
            <mxPoint x="550" y="315" as="targetPoint" />
            <Array as="points">
              <mxPoint x="610" y="315" />
            </Array>
          </mxGeometry>
        </mxCell>
        <mxCell id="Q-YEu0oxDrb5LOsO9U1e-44" value="" style="endArrow=classic;html=1;rounded=0;entryX=0.75;entryY=1;entryDx=0;entryDy=0;exitX=-0.006;exitY=0.591;exitDx=0;exitDy=0;exitPerimeter=0;" edge="1" parent="Q-YEu0oxDrb5LOsO9U1e-56" source="Q-YEu0oxDrb5LOsO9U1e-11" target="Q-YEu0oxDrb5LOsO9U1e-8">
          <mxGeometry width="50" height="50" relative="1" as="geometry">
            <mxPoint x="254" y="327" as="sourcePoint" />
            <mxPoint x="90" y="210" as="targetPoint" />
            <Array as="points">
              <mxPoint x="90" y="327" />
            </Array>
          </mxGeometry>
        </mxCell>
        <mxCell id="Q-YEu0oxDrb5LOsO9U1e-45" value="" style="endArrow=classic;html=1;rounded=0;entryX=0.038;entryY=0.322;entryDx=0;entryDy=0;exitX=0.611;exitY=1.017;exitDx=0;exitDy=0;exitPerimeter=0;entryPerimeter=0;" edge="1" parent="Q-YEu0oxDrb5LOsO9U1e-56" source="Q-YEu0oxDrb5LOsO9U1e-8" target="Q-YEu0oxDrb5LOsO9U1e-19">
          <mxGeometry width="50" height="50" relative="1" as="geometry">
            <mxPoint x="50" y="340" as="sourcePoint" />
            <mxPoint x="229" y="492" as="targetPoint" />
            <Array as="points">
              <mxPoint x="73" y="462" />
            </Array>
          </mxGeometry>
        </mxCell>
        <mxCell id="Q-YEu0oxDrb5LOsO9U1e-46" value="" style="endArrow=classic;html=1;rounded=0;entryX=0.5;entryY=1;entryDx=0;entryDy=0;exitX=0;exitY=0.578;exitDx=0;exitDy=0;exitPerimeter=0;" edge="1" parent="Q-YEu0oxDrb5LOsO9U1e-56" source="Q-YEu0oxDrb5LOsO9U1e-19" target="Q-YEu0oxDrb5LOsO9U1e-8">
          <mxGeometry width="50" height="50" relative="1" as="geometry">
            <mxPoint x="262" y="496" as="sourcePoint" />
            <mxPoint x="60" y="210" as="targetPoint" />
            <Array as="points">
              <mxPoint x="60" y="495" />
            </Array>
          </mxGeometry>
        </mxCell>
        <mxCell id="Q-YEu0oxDrb5LOsO9U1e-47" value="" style="endArrow=classic;html=1;rounded=0;entryX=0.038;entryY=0.367;entryDx=0;entryDy=0;entryPerimeter=0;exitX=0.347;exitY=1.017;exitDx=0;exitDy=0;exitPerimeter=0;" edge="1" parent="Q-YEu0oxDrb5LOsO9U1e-56" source="Q-YEu0oxDrb5LOsO9U1e-8" target="Q-YEu0oxDrb5LOsO9U1e-23">
          <mxGeometry width="50" height="50" relative="1" as="geometry">
            <mxPoint x="40" y="190" as="sourcePoint" />
            <mxPoint x="260" y="630" as="targetPoint" />
            <Array as="points">
              <mxPoint x="42" y="630" />
            </Array>
          </mxGeometry>
        </mxCell>
        <mxCell id="Q-YEu0oxDrb5LOsO9U1e-48" value="" style="endArrow=classic;html=1;rounded=0;entryX=0.25;entryY=1;entryDx=0;entryDy=0;exitX=0.032;exitY=0.687;exitDx=0;exitDy=0;exitPerimeter=0;" edge="1" parent="Q-YEu0oxDrb5LOsO9U1e-56" source="Q-YEu0oxDrb5LOsO9U1e-23" target="Q-YEu0oxDrb5LOsO9U1e-8">
          <mxGeometry width="50" height="50" relative="1" as="geometry">
            <mxPoint x="285" y="638" as="sourcePoint" />
            <mxPoint x="52" y="186" as="targetPoint" />
            <Array as="points">
              <mxPoint x="30" y="670" />
            </Array>
          </mxGeometry>
        </mxCell>
        <mxCell id="Q-YEu0oxDrb5LOsO9U1e-49" value="" style="endArrow=classic;html=1;rounded=0;entryX=0.75;entryY=1;entryDx=0;entryDy=0;exitX=1;exitY=0.5;exitDx=0;exitDy=0;" edge="1" parent="Q-YEu0oxDrb5LOsO9U1e-56" source="Q-YEu0oxDrb5LOsO9U1e-23" target="Q-YEu0oxDrb5LOsO9U1e-55">
          <mxGeometry width="50" height="50" relative="1" as="geometry">
            <mxPoint x="410" y="325" as="sourcePoint" />
            <mxPoint x="550" y="645" as="targetPoint" />
            <Array as="points">
              <mxPoint x="670" y="645" />
            </Array>
          </mxGeometry>
        </mxCell>
        <mxCell id="Q-YEu0oxDrb5LOsO9U1e-52" value="&lt;font style=&quot;font-size: 16px;&quot;&gt;Level 2 DFD for 1.2 process&lt;/font&gt;" style="rounded=1;arcSize=9;fillColor=#F7F8F9;align=center;spacingLeft=5;strokeColor=#DEE1E6;html=1;strokeWidth=2;fontSize=12" vertex="1" parent="Q-YEu0oxDrb5LOsO9U1e-56">
          <mxGeometry x="190" width="290" height="40" as="geometry" />
        </mxCell>
        <mxCell id="Q-YEu0oxDrb5LOsO9U1e-53" value="" style="endArrow=classic;html=1;rounded=0;exitX=1;exitY=0.5;exitDx=0;exitDy=0;entryX=0.25;entryY=1;entryDx=0;entryDy=0;" edge="1" parent="Q-YEu0oxDrb5LOsO9U1e-56" source="Q-YEu0oxDrb5LOsO9U1e-19" target="Q-YEu0oxDrb5LOsO9U1e-55">
          <mxGeometry width="50" height="50" relative="1" as="geometry">
            <mxPoint x="410" y="325" as="sourcePoint" />
            <mxPoint x="540" y="485" as="targetPoint" />
            <Array as="points">
              <mxPoint x="610" y="485" />
            </Array>
          </mxGeometry>
        </mxCell>
        <mxCell id="Q-YEu0oxDrb5LOsO9U1e-54" value="" style="endArrow=classic;html=1;rounded=0;exitX=1;exitY=0.5;exitDx=0;exitDy=0;entryX=0.694;entryY=0.017;entryDx=0;entryDy=0;entryPerimeter=0;" edge="1" parent="Q-YEu0oxDrb5LOsO9U1e-56" source="Q-YEu0oxDrb5LOsO9U1e-4" target="Q-YEu0oxDrb5LOsO9U1e-55">
          <mxGeometry width="50" height="50" relative="1" as="geometry">
            <mxPoint x="420" y="335" as="sourcePoint" />
            <mxPoint x="540" y="145" as="targetPoint" />
            <Array as="points">
              <mxPoint x="663" y="145" />
            </Array>
          </mxGeometry>
        </mxCell>
        <mxCell id="Q-YEu0oxDrb5LOsO9U1e-55" value="&lt;span style=&quot;font-size: 14px;&quot;&gt;Update Log panels according sections&lt;/span&gt;" style="rounded=0;whiteSpace=wrap;html=1;" vertex="1" parent="Q-YEu0oxDrb5LOsO9U1e-56">
          <mxGeometry x="580" y="370" width="120" height="60" as="geometry" />
        </mxCell>
      </root>
    </mxGraphModel>
  </diagram>
</mxfile>
